<?xml version="1.0" encoding="UTF-8"?>
<!DOCTYPE svg PUBLIC "-//W3C//DTD SVG 1.1//EN" "http://www.w3.org/Graphics/SVG/1.1/DTD/svg11.dtd">
<!-- Creator: CorelDRAW X6 -->
<svg xmlns="http://www.w3.org/2000/svg" xml:space="preserve" width="2.69444in" height="2.69444in" version="1.1" style="shape-rendering:geometricPrecision; text-rendering:geometricPrecision; image-rendering:optimizeQuality; fill-rule:evenodd; clip-rule:evenodd"
viewBox="0 0 2694 2694"
 xmlns:xlink="http://www.w3.org/1999/xlink">
 <defs>
  <style type="text/css">
   <![CDATA[
    .fil1 {fill:#C44041}
    .fil0 {fill:#FEFEFE}
   ]]>
  </style>
 </defs>
 <g id="Layer_x0020_1">
  <metadata id="CorelCorpID_0Corel-Layer"/>
  <polygon class="fil0" points="4,2687 2681,2687 2681,9 4,9 "/>
  <path class="fil1" d="M2549 1632c3,1 6,3 8,6 5,10 6,13 6,16 0,4 -1,8 -3,12 -2,4 -5,7 -10,8 4,2 6,4 8,7 2,3 2,7 2,13 0,10 -1,19 -1,21l-17 0 0 -12 0 -8c0,-5 -1,-9 -3,-11 -2,-2 -5,-3 -10,-3l-18 0 0 34 -17 0 0 -86 40 0c6,0 10,1 13,2zm-36 13l0 23 19 0c4,0 7,0 9,-1 3,-2 5,-5 5,-10 0,-5 -2,-9 -5,-11 -2,-1 -5,-2 -8,-2l-20 0zm-57 -15l24 0 0 86 -16 0 0 -58 0 -14 -15 73 -17 0 -15 -73 0 14 0 58 -16 0 0 -86 25 0 15 68 15 -68z"/>
  <path class="fil1" d="M1040 1640c-89,-57 -210,-67 -404,-13 -208,49 -277,80 -368,17 -35,-31 -47,-81 -38,-152 22,-117 80,-229 184,-353 58,-65 112,-120 183,-143 55,-14 49,29 43,35 -7,0 -19,1 -28,7 -7,6 -27,24 -29,49 -2,38 38,30 55,9 18,-23 45,-68 24,-110 -9,-15 -24,-25 -43,-29 -65,-4 -126,27 -182,62 -123,85 -220,203 -276,332 -32,78 -61,189 -18,280 34,63 103,96 186,89 58,-6 129,-25 176,-36 47,-11 290,-95 369,50 0,0 26,-51 93,-53 54,-5 133,16 190,58 -19,-29 -73,-71 -118,-100z"/>
  <path class="fil1" d="M660 1153c-45,-30 -136,27 -209,125 -67,88 -96,189 -64,236 47,55 133,-25 170,-68l5 -5c25,-27 44,-59 63,-90 0,0 17,-28 18,-30 11,-2 23,-5 38,-9 0,1 -55,93 -50,139 2,14 0,65 50,81 67,11 120,-40 167,-86 0,0 8,-8 13,-12 -1,5 -3,11 -3,11 -20,68 7,82 23,87 50,14 109,-58 109,-58 -2,23 -6,42 18,57 23,8 46,-4 63,-16 63,-44 113,-114 154,-173l-26 0c0,0 -64,92 -106,112 0,0 -8,4 -12,1 -5,-5 -3,-15 0,-22 0,0 160,-279 160,-279l-76 0c0,0 -8,14 -9,15 -1,0 -2,-2 -3,-4 -47,-65 -153,35 -233,151 -31,44 -70,95 -110,131 0,0 -60,55 -86,16 -9,-17 -7,-41 -1,-57 30,-85 81,-162 140,-209 17,-13 35,-17 43,-11 9,5 10,18 5,26 -14,0 -25,4 -33,13 -18,18 -24,36 -18,53 27,39 81,-38 78,-84 -1,-17 -10,-32 -23,-40 -20,-12 -50,-9 -69,1 -26,10 -67,44 -91,71 -30,33 -82,71 -99,67 5,-14 49,-104 3,-138zm364 133c15,-20 57,-75 68,-84 35,-31 49,-17 50,-8 -33,59 -71,126 -108,186 0,0 -11,17 -11,17 -16,25 -32,46 -59,60 -4,1 -10,2 -14,-2 -5,-3 -7,-9 -6,-14 2,-19 21,-76 80,-156zm-411 35c0,0 -1,2 -1,3 0,0 -33,54 -33,54 -20,26 -45,60 -76,76 -9,3 -22,5 -28,-3 -14,-16 -7,-39 -1,-58l2 -7c16,-45 43,-84 68,-121 0,0 1,0 1,0 0,0 0,0 0,1 16,31 46,45 68,51 0,0 0,0 0,1 0,1 0,2 -1,3zm31 -63c0,0 -15,34 -15,34 -2,2 -5,1 -9,0l-7 -1c-20,-6 -36,-20 -41,-36 -7,-32 20,-56 32,-65 11,-8 29,-12 39,-4 6,7 9,17 9,28 0,14 -4,30 -9,45z"/>
  <path class="fil1" d="M1600 1359c-7,-16 -25,-26 -43,-25 -60,5 -118,55 -149,125 -16,36 -25,66 -31,114 19,-21 57,-57 100,-76 0,0 6,-46 36,-86 11,-17 34,-44 59,-37 22,7 14,69 -15,128 -22,44 -55,88 -89,118 -30,25 -74,56 -113,32 -24,-14 -37,-45 -34,-84 12,-110 62,-205 134,-312 74,-100 156,-202 266,-256 22,-11 43,-14 61,-7 0,0 -103,57 -153,162 -13,27 -30,63 -12,95 9,17 26,18 39,17 60,-14 99,-70 131,-122 19,-39 35,-78 35,-121 0,-5 0,-12 -1,-18 29,-15 88,12 88,12 46,15 145,91 178,105 16,-19 43,-47 58,-61l-22 -13c-35,-21 -72,-41 -108,-61 -82,-45 -149,-29 -183,-17 -13,5 -26,9 -26,9 -25,-28 -67,-25 -97,-18 -110,32 -212,108 -321,242 -80,104 -130,194 -157,284 -20,60 -27,148 23,200 42,44 99,35 139,19 86,-42 164,-134 202,-239 9,-31 20,-75 4,-109zm198 -330c-11,131 -113,208 -138,214 -15,3 -41,-4 -18,-59 34,-74 93,-137 155,-169 2,5 1,9 1,14z"/>
  <path class="fil1" d="M2401 1046c-55,31 -111,51 -180,44 -19,21 -38,44 -55,66 96,25 198,-30 255,-82 60,-52 91,-118 91,-118 0,0 -45,52 -112,89z"/>
  <polygon class="fil1" points="1367,1154 1296,1154 1255,1222 1327,1222 "/>
  <path class="fil1" d="M2221 1646c-8,5 -19,1 -14,-11 10,-31 50,-94 50,-94l112 -199 -77 0c-4,7 -11,20 -11,20 -4,-6 -14,-19 -19,-22 -19,-12 -46,-6 -65,5 -82,48 -142,143 -190,217 0,0 -50,82 -78,89 -22,2 -19,-27 -18,-34 8,-49 28,-96 47,-138 40,-28 85,-64 126,-103 89,-86 165,-182 176,-204 0,0 -12,2 -26,3 -69,96 -210,236 -252,256 19,-46 141,-263 245,-367l16 -16c25,-25 52,-50 72,-54 2,0 5,0 7,5 1,19 -6,33 -14,50l-12 24c0,0 16,-3 27,-7 12,-23 26,-50 21,-81 -2,-10 -9,-18 -19,-19 -31,-6 -65,17 -92,36l-1 1c-140,110 -258,268 -361,483 -8,6 -36,12 -41,9 10,-21 23,-49 29,-80 1,-9 2,-18 2,-26 0,-19 -5,-37 -21,-49 -20,-10 -44,-5 -61,2 -74,31 -129,106 -169,169 -21,40 -43,82 -49,131 -4,38 4,63 26,75 22,11 50,0 61,-6 75,-39 127,-118 168,-191 2,0 24,-1 41,-5 0,0 0,0 1,0 -1,3 -10,30 -10,30 -26,77 -38,129 -14,159 35,44 94,-2 141,-61 -10,71 27,82 55,77 32,-9 68,-43 85,-61 -5,21 -4,58 26,62 20,4 35,-7 53,-16 63,-34 138,-149 157,-180l-26 0c-28,41 -63,96 -107,122zm-563 -8c-4,-6 -5,-13 -5,-20 -1,-43 45,-119 78,-162 0,0 0,0 0,0 14,32 45,49 63,58 -23,52 -103,163 -136,124zm149 -147c-2,2 -41,-12 -49,-48 -6,-31 15,-55 36,-68 9,-7 22,-9 32,-6 9,6 12,17 12,29 0,7 -1,15 -2,21 0,0 0,1 0,2 -7,24 -16,48 -29,69zm313 133c0,0 -7,7 -7,7 -11,9 -21,19 -34,14 -4,-1 -6,-6 -7,-10 -1,-27 12,-52 23,-76l3 -6c34,-56 73,-123 131,-169 10,-7 20,-13 31,-8 3,2 6,7 6,11 0,1 -1,5 -2,6 -16,26 -31,53 -46,80 -29,52 -59,105 -97,152z"/>
 </g>
</svg>
